<?xml version="1.0" encoding="utf-8"?>
<!-- Generator: Adobe Illustrator 19.0.0, SVG Export Plug-In . SVG Version: 6.00 Build 0)  -->
<svg version="1.1" id="Layer_1" xmlns="http://www.w3.org/2000/svg" xmlns:xlink="http://www.w3.org/1999/xlink" x="0px" y="0px"
	 viewBox="0 0 165.6 33.1" enable-background="new 0 0 165.6 33.1" xml:space="preserve">
<g id="XMLID_15_">
	<path id="XMLID_16_" fill="#FFFFFF" d="M25.7,19c1.1,1.5,1.7,3.2,1.7,5.1c0,2.9-1,5.1-2.9,6.7c-1.9,1.6-4.6,2.4-8.2,2.4H0V0h16
		c3.3,0,5.9,0.7,7.8,2.2c1.9,1.5,2.8,3.6,2.8,6.4c0,2-0.5,3.6-1.5,4.9c-1,1.3-2.4,2.2-4.1,2.6C23,16.6,24.6,17.5,25.7,19z M9.2,13.2
		h4.6c2.3,0,3.5-1,3.5-2.9c0-2-1.2-3-3.5-3H9.2V13.2z M18,22.7c0-2.1-1.2-3.1-3.6-3.1H9.2v6.1h5.2C16.8,25.7,18,24.7,18,22.7z"/>
	<path id="XMLID_20_" fill="#FFFFFF" d="M50.2,33.1l-6.7-12.2h-0.9v12.2h-9.2V0h14.5c2.6,0,4.9,0.5,6.8,1.4c1.9,0.9,3.3,2.2,4.2,3.8
		c0.9,1.6,1.4,3.4,1.4,5.5c0,2.3-0.6,4.3-1.9,6c-1.3,1.7-3.1,2.9-5.5,3.6l7.5,12.9H50.2z M42.6,14.7h4.5c2.6,0,3.8-1.2,3.8-3.5
		c0-1.1-0.3-1.9-1-2.6c-0.6-0.6-1.6-0.9-2.9-0.9h-4.5V14.7z"/>
	<path id="XMLID_23_" fill="#FFFFFF" d="M75.2,0v33.1H66V0H75.2z"/>
	<path id="XMLID_25_" fill="#FFFFFF" d="M103.3,27.6H91.6l-1.8,5.5h-9.7l12.1-33h10.6l12.1,33h-9.7L103.3,27.6z M101.1,20.7
		L97.5,9.9l-3.6,10.8H101.1z"/>
	<path id="XMLID_28_" fill="#FFFFFF" d="M150.3,33.1h-9.2l-12.2-18.5v18.5h-9.2V0h9.2l12.2,18.7V0h9.2V33.1z"/>
	<path id="XMLID_30_" fill="#FEC25E" d="M165.6,24.1v9h-9.3v-9H165.6z"/>
</g>
</svg>
